<mxfile host="65bd71144e">
    <diagram id="THuYh-ym8cFt9KJ00TGt" name="Page-1">
        <mxGraphModel dx="1873" dy="1844" grid="1" gridSize="10" guides="1" tooltips="1" connect="1" arrows="1" fold="1" page="1" pageScale="1" pageWidth="850" pageHeight="1100" math="0" shadow="0">
            <root>
                <mxCell id="0"/>
                <mxCell id="1" parent="0"/>
                <mxCell id="L_pBXImfrmdXrkmZ3-33-18" value="|" style="rounded=1;whiteSpace=wrap;html=1;shadow=1;sketch=0;strokeWidth=8;fillColor=none;strokeColor=#FFD966;dashed=1;fontSize=24;" parent="1" vertex="1">
                    <mxGeometry x="20" width="1570" height="750" as="geometry"/>
                </mxCell>
                <mxCell id="cIkYoaAPw058XxT0Uyvx-30" value="" style="rounded=1;whiteSpace=wrap;html=1;shadow=1;sketch=0;strokeWidth=8;fillColor=none;strokeColor=#FFD966;fontSize=24;" parent="1" vertex="1">
                    <mxGeometry x="360" y="130" width="1070" height="430" as="geometry"/>
                </mxCell>
                <mxCell id="5greAeXIB-viJ6H0r06e-43" style="edgeStyle=orthogonalEdgeStyle;rounded=0;jumpStyle=arc;orthogonalLoop=1;jettySize=auto;html=1;exitX=1;exitY=0.75;exitDx=0;exitDy=0;shadow=1;startArrow=none;startFill=0;strokeWidth=3;fontSize=24;fillColor=#fa6800;strokeColor=#C73500;entryX=0.867;entryY=0.499;entryDx=0;entryDy=0;entryPerimeter=0;" parent="1" source="cIkYoaAPw058XxT0Uyvx-26" target="cIkYoaAPw058XxT0Uyvx-54" edge="1">
                    <mxGeometry relative="1" as="geometry">
                        <mxPoint x="810" y="330" as="sourcePoint"/>
                        <mxPoint x="890" y="401" as="targetPoint"/>
                        <Array as="points">
                            <mxPoint x="762" y="336"/>
                            <mxPoint x="762" y="400"/>
                        </Array>
                    </mxGeometry>
                </mxCell>
                <mxCell id="cIkYoaAPw058XxT0Uyvx-34" style="edgeStyle=orthogonalEdgeStyle;rounded=0;orthogonalLoop=1;jettySize=auto;html=1;exitX=1;exitY=0.5;exitDx=0;exitDy=0;entryX=0;entryY=0.5;entryDx=0;entryDy=0;endArrow=block;endFill=0;strokeWidth=2;fillColor=#e51400;strokeColor=#B20000;fontSize=24;" parent="1" source="cIkYoaAPw058XxT0Uyvx-13" target="5greAeXIB-viJ6H0r06e-1" edge="1">
                    <mxGeometry relative="1" as="geometry">
                        <mxPoint x="494.9999999999957" y="320" as="targetPoint"/>
                        <Array as="points">
                            <mxPoint x="10" y="290"/>
                            <mxPoint x="10" y="290"/>
                        </Array>
                    </mxGeometry>
                </mxCell>
                <mxCell id="cIkYoaAPw058XxT0Uyvx-10" style="edgeStyle=orthogonalEdgeStyle;rounded=0;orthogonalLoop=1;jettySize=auto;html=1;exitX=0.5;exitY=1;exitDx=0;exitDy=0;exitPerimeter=0;entryX=0.5;entryY=0;entryDx=0;entryDy=0;fontSize=24;" parent="1" source="cIkYoaAPw058XxT0Uyvx-1" target="cIkYoaAPw058XxT0Uyvx-13" edge="1">
                    <mxGeometry relative="1" as="geometry">
                        <mxPoint x="-196" y="250" as="targetPoint"/>
                    </mxGeometry>
                </mxCell>
                <mxCell id="cIkYoaAPw058XxT0Uyvx-20" value="Read" style="edgeLabel;html=1;align=center;verticalAlign=middle;resizable=0;points=[];fontSize=24;" parent="cIkYoaAPw058XxT0Uyvx-10" vertex="1" connectable="0">
                    <mxGeometry x="-0.3" relative="1" as="geometry">
                        <mxPoint y="4.71" as="offset"/>
                    </mxGeometry>
                </mxCell>
                <mxCell id="cIkYoaAPw058XxT0Uyvx-1" value="Device&lt;br style=&quot;font-size: 24px;&quot;&gt;Wallï¼ŒPF" style="shape=cylinder3;whiteSpace=wrap;html=1;boundedLbl=1;backgroundOutline=1;size=15;fontSize=24;" parent="1" vertex="1">
                    <mxGeometry x="-230" y="30" width="84" height="110" as="geometry"/>
                </mxCell>
                <mxCell id="cIkYoaAPw058XxT0Uyvx-11" style="edgeStyle=orthogonalEdgeStyle;rounded=0;orthogonalLoop=1;jettySize=auto;html=1;exitX=0.55;exitY=0.95;exitDx=0;exitDy=0;exitPerimeter=0;entryX=0;entryY=0.5;entryDx=0;entryDy=0;entryPerimeter=0;fontSize=24;" parent="1" source="L_pBXImfrmdXrkmZ3-33-9" target="cIkYoaAPw058XxT0Uyvx-4" edge="1">
                    <mxGeometry relative="1" as="geometry">
                        <mxPoint x="-50" y="60" as="sourcePoint"/>
                    </mxGeometry>
                </mxCell>
                <mxCell id="cIkYoaAPw058XxT0Uyvx-9" style="edgeStyle=orthogonalEdgeStyle;rounded=0;orthogonalLoop=1;jettySize=auto;html=1;exitX=0.5;exitY=1;exitDx=0;exitDy=0;exitPerimeter=0;entryX=0.22;entryY=0.027;entryDx=0;entryDy=0;endArrow=block;endFill=1;startArrow=none;startFill=0;entryPerimeter=0;curved=1;fontSize=24;" parent="1" source="cIkYoaAPw058XxT0Uyvx-3" target="cIkYoaAPw058XxT0Uyvx-13" edge="1">
                    <mxGeometry relative="1" as="geometry">
                        <mxPoint x="-243.5" y="250" as="targetPoint"/>
                    </mxGeometry>
                </mxCell>
                <mxCell id="cIkYoaAPw058XxT0Uyvx-3" value="Mapping File" style="shape=note;whiteSpace=wrap;html=1;backgroundOutline=1;darkOpacity=0.05;fontSize=24;" parent="1" vertex="1">
                    <mxGeometry x="-341" y="40" width="80" height="100" as="geometry"/>
                </mxCell>
                <mxCell id="cIkYoaAPw058XxT0Uyvx-12" style="edgeStyle=orthogonalEdgeStyle;rounded=0;orthogonalLoop=1;jettySize=auto;html=1;exitX=1;exitY=0.5;exitDx=0;exitDy=0;exitPerimeter=0;entryX=0.625;entryY=0;entryDx=0;entryDy=0;curved=1;fontSize=24;" parent="1" source="cIkYoaAPw058XxT0Uyvx-4" target="cIkYoaAPw058XxT0Uyvx-13" edge="1">
                    <mxGeometry relative="1" as="geometry">
                        <mxPoint x="-148.5" y="250" as="targetPoint"/>
                    </mxGeometry>
                </mxCell>
                <mxCell id="cIkYoaAPw058XxT0Uyvx-19" value="Read" style="edgeLabel;html=1;align=center;verticalAlign=middle;resizable=0;points=[];fontSize=24;" parent="cIkYoaAPw058XxT0Uyvx-12" vertex="1" connectable="0">
                    <mxGeometry x="-0.4695" relative="1" as="geometry">
                        <mxPoint x="-0.05" y="-27.06" as="offset"/>
                    </mxGeometry>
                </mxCell>
                <mxCell id="cIkYoaAPw058XxT0Uyvx-4" value="MDSPlus DB &lt;br style=&quot;font-size: 24px;&quot;&gt;Plugin" style="shape=or;whiteSpace=wrap;html=1;rotation=0;direction=south;fontSize=24;" parent="1" vertex="1">
                    <mxGeometry x="-90" y="100" width="80" height="60" as="geometry"/>
                </mxCell>
                <mxCell id="L_pBXImfrmdXrkmZ3-33-17" style="edgeStyle=orthogonalEdgeStyle;rounded=0;orthogonalLoop=1;jettySize=auto;html=1;exitX=1;exitY=0.25;exitDx=0;exitDy=0;entryX=0;entryY=0.5;entryDx=0;entryDy=0;strokeWidth=2;dashed=1;fontSize=24;" parent="1" source="cIkYoaAPw058XxT0Uyvx-13" target="L_pBXImfrmdXrkmZ3-33-15" edge="1">
                    <mxGeometry relative="1" as="geometry">
                        <Array as="points">
                            <mxPoint y="276"/>
                            <mxPoint y="180"/>
                        </Array>
                    </mxGeometry>
                </mxCell>
                <mxCell id="cIkYoaAPw058XxT0Uyvx-13" value="&lt;span style=&quot;font-size: 24px;&quot;&gt;Data Integration&lt;br style=&quot;font-size: 24px;&quot;&gt;(&lt;i style=&quot;font-size: 24px;&quot;&gt;&lt;b style=&quot;font-size: 24px;&quot;&gt;&lt;font color=&quot;#ff8000&quot; style=&quot;font-size: 24px;&quot;&gt;Sp&lt;/font&gt;&lt;/b&gt;&lt;/i&gt;&lt;font color=&quot;#002fa7&quot; style=&quot;font-size: 24px;&quot;&gt;DB&lt;/font&gt;)&lt;br style=&quot;font-size: 24px;&quot;&gt;&lt;/span&gt;" style="shape=hexagon;perimeter=hexagonPerimeter2;whiteSpace=wrap;html=1;fixedSize=1;fillColor=none;strokeColor=#7EA6E0;strokeWidth=5;fontSize=24;" parent="1" vertex="1">
                    <mxGeometry x="-310" y="251" width="229" height="80" as="geometry"/>
                </mxCell>
                <mxCell id="cIkYoaAPw058XxT0Uyvx-35" style="edgeStyle=orthogonalEdgeStyle;rounded=0;orthogonalLoop=1;jettySize=auto;html=1;exitX=1;exitY=0.5;exitDx=0;exitDy=0;entryX=0;entryY=0.5;entryDx=0;entryDy=0;endArrow=block;endFill=0;strokeWidth=4;fillColor=#e51400;strokeColor=#B20000;fontSize=24;" parent="1" source="cIkYoaAPw058XxT0Uyvx-15" target="cIkYoaAPw058XxT0Uyvx-26" edge="1">
                    <mxGeometry relative="1" as="geometry">
                        <Array as="points">
                            <mxPoint x="670" y="320"/>
                            <mxPoint x="670" y="320"/>
                        </Array>
                    </mxGeometry>
                </mxCell>
                <mxCell id="5greAeXIB-viJ6H0r06e-36" style="edgeStyle=orthogonalEdgeStyle;rounded=0;orthogonalLoop=1;jettySize=auto;html=1;exitX=0.5;exitY=1;exitDx=0;exitDy=0;entryX=0.5;entryY=1;entryDx=0;entryDy=0;strokeWidth=2;dashed=1;fontSize=24;" parent="1" source="cIkYoaAPw058XxT0Uyvx-15" target="5greAeXIB-viJ6H0r06e-24" edge="1">
                    <mxGeometry relative="1" as="geometry">
                        <Array as="points">
                            <mxPoint x="605" y="540"/>
                            <mxPoint x="100" y="540"/>
                        </Array>
                    </mxGeometry>
                </mxCell>
                <mxCell id="5greAeXIB-viJ6H0r06e-37" value="Coil current" style="edgeLabel;html=1;align=center;verticalAlign=middle;resizable=0;points=[];fontSize=24;" parent="5greAeXIB-viJ6H0r06e-36" vertex="1" connectable="0">
                    <mxGeometry x="0.0012" y="5" relative="1" as="geometry">
                        <mxPoint x="-161.67000000000002" y="-5" as="offset"/>
                    </mxGeometry>
                </mxCell>
                <mxCell id="cIkYoaAPw058XxT0Uyvx-15" value="&lt;font style=&quot;font-size: 24px;&quot;&gt;Equilibrium&amp;nbsp; &amp;nbsp;&lt;/font&gt;" style="triangle;whiteSpace=wrap;html=1;rounded=1;sketch=0;shadow=0;fillColor=none;strokeWidth=2;arcSize=32;fontSize=24;" parent="1" vertex="1">
                    <mxGeometry x="544" y="260" width="90" height="120" as="geometry"/>
                </mxCell>
                <mxCell id="cIkYoaAPw058XxT0Uyvx-18" value="Call" style="edgeStyle=orthogonalEdgeStyle;rounded=0;orthogonalLoop=1;jettySize=auto;html=1;exitX=0.5;exitY=1;exitDx=0;exitDy=0;endArrow=block;endFill=0;strokeWidth=2;fontSize=24;" parent="1" source="cIkYoaAPw058XxT0Uyvx-17" target="cIkYoaAPw058XxT0Uyvx-15" edge="1">
                    <mxGeometry x="-0.8333" relative="1" as="geometry">
                        <mxPoint as="offset"/>
                    </mxGeometry>
                </mxCell>
                <mxCell id="cIkYoaAPw058XxT0Uyvx-17" value="&lt;font style=&quot;font-size: 24px;&quot;&gt;2D Equilibrium solver&lt;/font&gt;" style="shape=process;whiteSpace=wrap;html=1;backgroundOutline=1;fontSize=24;" parent="1" vertex="1">
                    <mxGeometry x="471" y="-160" width="240" height="90" as="geometry"/>
                </mxCell>
                <mxCell id="cIkYoaAPw058XxT0Uyvx-37" style="edgeStyle=orthogonalEdgeStyle;rounded=0;orthogonalLoop=1;jettySize=auto;html=1;exitX=1;exitY=0.5;exitDx=0;exitDy=0;endArrow=block;endFill=0;strokeWidth=4;entryX=0;entryY=0.5;entryDx=0;entryDy=0;fillColor=#fa6800;strokeColor=#C73500;fontSize=24;" parent="1" source="cIkYoaAPw058XxT0Uyvx-25" target="5greAeXIB-viJ6H0r06e-4" edge="1">
                    <mxGeometry relative="1" as="geometry">
                        <mxPoint x="1324.6" y="320" as="targetPoint"/>
                    </mxGeometry>
                </mxCell>
                <mxCell id="cIkYoaAPw058XxT0Uyvx-25" value="&lt;div style=&quot;text-align: left; font-size: 24px;&quot;&gt;&lt;span style=&quot;background-color: initial; font-size: 24px;&quot;&gt;Transport&amp;nbsp;&amp;nbsp;&lt;/span&gt;&lt;/div&gt;&lt;font style=&quot;font-size: 24px;&quot;&gt;Solver&amp;nbsp; &amp;nbsp; &amp;nbsp;&lt;/font&gt;" style="triangle;whiteSpace=wrap;html=1;rounded=1;sketch=0;shadow=0;strokeWidth=2;fillColor=none;fontSize=24;" parent="1" vertex="1">
                    <mxGeometry x="1180" y="250" width="120" height="140" as="geometry"/>
                </mxCell>
                <mxCell id="cIkYoaAPw058XxT0Uyvx-36" style="edgeStyle=orthogonalEdgeStyle;rounded=0;orthogonalLoop=1;jettySize=auto;html=1;exitX=1;exitY=0.5;exitDx=0;exitDy=0;endArrow=block;endFill=0;strokeWidth=4;entryX=0;entryY=0.5;entryDx=0;entryDy=0;fillColor=#e51400;strokeColor=#B20000;fontSize=24;" parent="1" source="cIkYoaAPw058XxT0Uyvx-26" target="cIkYoaAPw058XxT0Uyvx-25" edge="1">
                    <mxGeometry relative="1" as="geometry">
                        <mxPoint x="1040" y="300" as="targetPoint"/>
                        <mxPoint x="820" y="320" as="sourcePoint"/>
                    </mxGeometry>
                </mxCell>
                <mxCell id="cIkYoaAPw058XxT0Uyvx-51" style="edgeStyle=orthogonalEdgeStyle;rounded=0;orthogonalLoop=1;jettySize=auto;html=1;endArrow=block;endFill=1;strokeWidth=4;fontSize=24;entryX=0;entryY=0.5;entryDx=0;entryDy=0;exitX=1;exitY=0.25;exitDx=0;exitDy=0;fillColor=#e51400;strokeColor=#B20000;" parent="1" source="cIkYoaAPw058XxT0Uyvx-26" target="cIkYoaAPw058XxT0Uyvx-48" edge="1">
                    <mxGeometry relative="1" as="geometry">
                        <mxPoint x="780" y="260" as="sourcePoint"/>
                        <mxPoint x="800" y="370" as="targetPoint"/>
                        <Array as="points">
                            <mxPoint x="762" y="220"/>
                        </Array>
                    </mxGeometry>
                </mxCell>
                <mxCell id="cIkYoaAPw058XxT0Uyvx-26" value="Flux&lt;br style=&quot;font-size: 24px;&quot;&gt;Surface" style="shape=step;perimeter=stepPerimeter;whiteSpace=wrap;html=1;fixedSize=1;rounded=1;shadow=0;sketch=0;fillColor=none;strokeWidth=2;fontSize=24;strokeColor=#EA6B66;" parent="1" vertex="1">
                    <mxGeometry x="670" y="280" width="100" height="80" as="geometry"/>
                </mxCell>
                <mxCell id="cIkYoaAPw058XxT0Uyvx-42" style="edgeStyle=orthogonalEdgeStyle;rounded=0;orthogonalLoop=1;jettySize=auto;html=1;exitX=0.5;exitY=1;exitDx=0;exitDy=0;entryX=0.5;entryY=1;entryDx=0;entryDy=0;endArrow=block;endFill=0;strokeWidth=4;fillColor=#fa6800;strokeColor=#C73500;dashed=1;fontSize=24;" parent="1" source="5greAeXIB-viJ6H0r06e-4" target="5greAeXIB-viJ6H0r06e-1" edge="1">
                    <mxGeometry relative="1" as="geometry">
                        <Array as="points">
                            <mxPoint x="1349" y="480"/>
                            <mxPoint x="445" y="480"/>
                        </Array>
                        <mxPoint x="1348.75" y="301.25" as="sourcePoint"/>
                        <mxPoint x="513.75" y="301.25" as="targetPoint"/>
                    </mxGeometry>
                </mxCell>
                <mxCell id="cIkYoaAPw058XxT0Uyvx-45" value="not" style="edgeLabel;html=1;align=center;verticalAlign=middle;resizable=0;points=[];fontSize=24;" parent="cIkYoaAPw058XxT0Uyvx-42" vertex="1" connectable="0">
                    <mxGeometry x="0.1534" y="5" relative="1" as="geometry">
                        <mxPoint x="561" y="-105" as="offset"/>
                    </mxGeometry>
                </mxCell>
                <mxCell id="cIkYoaAPw058XxT0Uyvx-44" style="edgeStyle=orthogonalEdgeStyle;rounded=0;orthogonalLoop=1;jettySize=auto;html=1;exitX=1;exitY=0.5;exitDx=0;exitDy=0;endArrow=block;endFill=0;strokeWidth=4;entryX=0;entryY=0.5;entryDx=0;entryDy=0;fillColor=#e51400;strokeColor=#B20000;fontSize=24;" parent="1" source="5greAeXIB-viJ6H0r06e-4" target="5greAeXIB-viJ6H0r06e-15" edge="1">
                    <mxGeometry relative="1" as="geometry">
                        <mxPoint x="1490" y="320" as="targetPoint"/>
                        <mxPoint x="1367.4999999999905" y="320" as="sourcePoint"/>
                    </mxGeometry>
                </mxCell>
                <mxCell id="cIkYoaAPw058XxT0Uyvx-46" value="convergent" style="edgeLabel;html=1;align=center;verticalAlign=middle;resizable=0;points=[];fontSize=24;" parent="cIkYoaAPw058XxT0Uyvx-44" vertex="1" connectable="0">
                    <mxGeometry x="-0.2272" y="-1" relative="1" as="geometry">
                        <mxPoint y="-1" as="offset"/>
                    </mxGeometry>
                </mxCell>
                <mxCell id="cIkYoaAPw058XxT0Uyvx-47" value="Waveï¼Œ" style="shape=process;whiteSpace=wrap;html=1;backgroundOutline=1;dashed=1;fontSize=24;" parent="1" vertex="1">
                    <mxGeometry x="812.5" y="780" width="165" height="90" as="geometry"/>
                </mxCell>
                <mxCell id="cIkYoaAPw058XxT0Uyvx-53" style="edgeStyle=orthogonalEdgeStyle;rounded=0;orthogonalLoop=1;jettySize=auto;html=1;exitX=1;exitY=0.5;exitDx=0;exitDy=0;entryX=0;entryY=0.25;entryDx=0;entryDy=0;endArrow=block;endFill=0;strokeWidth=2;fontSize=24;" parent="1" source="cIkYoaAPw058XxT0Uyvx-48" target="cIkYoaAPw058XxT0Uyvx-25" edge="1">
                    <mxGeometry relative="1" as="geometry">
                        <Array as="points">
                            <mxPoint x="1050" y="220"/>
                            <mxPoint x="1050" y="285"/>
                        </Array>
                    </mxGeometry>
                </mxCell>
                <mxCell id="cIkYoaAPw058XxT0Uyvx-48" value="Core&lt;br style=&quot;font-size: 24px;&quot;&gt;Sources" style="shape=dataStorage;whiteSpace=wrap;html=1;fixedSize=1;rounded=1;shadow=0;sketch=0;strokeColor=#000000;strokeWidth=2;fontSize=24;rotation=0;fillColor=none;flipV=1;flipH=1;" parent="1" vertex="1">
                    <mxGeometry x="820" y="180" width="150" height="80" as="geometry"/>
                </mxCell>
                <mxCell id="cIkYoaAPw058XxT0Uyvx-56" style="edgeStyle=orthogonalEdgeStyle;rounded=0;orthogonalLoop=1;jettySize=auto;html=1;exitX=1;exitY=0.5;exitDx=0;exitDy=0;entryX=0;entryY=0.75;entryDx=0;entryDy=0;endArrow=block;endFill=0;strokeWidth=2;fontSize=24;" parent="1" source="cIkYoaAPw058XxT0Uyvx-54" target="cIkYoaAPw058XxT0Uyvx-25" edge="1">
                    <mxGeometry relative="1" as="geometry"/>
                </mxCell>
                <mxCell id="cIkYoaAPw058XxT0Uyvx-54" value="Core&lt;br style=&quot;font-size: 24px;&quot;&gt;Transport" style="shape=dataStorage;whiteSpace=wrap;html=1;fixedSize=1;rounded=1;shadow=0;sketch=0;strokeColor=#000000;strokeWidth=2;fontSize=24;rotation=0;fillColor=none;flipV=1;flipH=1;" parent="1" vertex="1">
                    <mxGeometry x="945" y="360" width="170" height="80" as="geometry"/>
                </mxCell>
                <mxCell id="cIkYoaAPw058XxT0Uyvx-57" value="Gyrokinetic&lt;br style=&quot;font-size: 24px;&quot;&gt;MHD" style="shape=process;whiteSpace=wrap;html=1;backgroundOutline=1;dashed=1;fontSize=24;" parent="1" vertex="1">
                    <mxGeometry x="1050" y="790" width="180" height="70" as="geometry"/>
                </mxCell>
                <mxCell id="cIkYoaAPw058XxT0Uyvx-63" style="edgeStyle=orthogonalEdgeStyle;rounded=0;orthogonalLoop=1;jettySize=auto;html=1;endArrow=block;endFill=0;strokeWidth=2;fontSize=24;" parent="1" source="cIkYoaAPw058XxT0Uyvx-58" target="cIkYoaAPw058XxT0Uyvx-25" edge="1">
                    <mxGeometry relative="1" as="geometry"/>
                </mxCell>
                <mxCell id="cIkYoaAPw058XxT0Uyvx-64" value="Call" style="edgeLabel;html=1;align=center;verticalAlign=middle;resizable=0;points=[];fontSize=24;" parent="cIkYoaAPw058XxT0Uyvx-63" vertex="1" connectable="0">
                    <mxGeometry x="-0.2625" y="-2" relative="1" as="geometry">
                        <mxPoint x="2" y="-101.43" as="offset"/>
                    </mxGeometry>
                </mxCell>
                <mxCell id="cIkYoaAPw058XxT0Uyvx-58" value="&lt;font style=&quot;font-size: 24px;&quot;&gt;1D Transport Solver&lt;/font&gt;" style="shape=process;whiteSpace=wrap;html=1;backgroundOutline=1;fontSize=24;" parent="1" vertex="1">
                    <mxGeometry x="1110" y="-160" width="260" height="90" as="geometry"/>
                </mxCell>
                <mxCell id="cIkYoaAPw058XxT0Uyvx-59" value="Call" style="edgeStyle=orthogonalEdgeStyle;rounded=0;orthogonalLoop=1;jettySize=auto;html=1;exitX=0.5;exitY=0;exitDx=0;exitDy=0;endArrow=block;endFill=0;dashed=1;strokeWidth=2;fontSize=24;entryX=0.5;entryY=1;entryDx=0;entryDy=0;" parent="1" source="cIkYoaAPw058XxT0Uyvx-47" target="cIkYoaAPw058XxT0Uyvx-48" edge="1">
                    <mxGeometry x="-0.8077" relative="1" as="geometry">
                        <mxPoint x="880" y="540" as="sourcePoint"/>
                        <mxPoint x="880" y="320" as="targetPoint"/>
                        <mxPoint as="offset"/>
                        <Array as="points">
                            <mxPoint x="895" y="510"/>
                            <mxPoint x="895" y="510"/>
                        </Array>
                    </mxGeometry>
                </mxCell>
                <mxCell id="cIkYoaAPw058XxT0Uyvx-60" value="Call" style="edgeStyle=orthogonalEdgeStyle;rounded=0;orthogonalLoop=1;jettySize=auto;html=1;exitX=0.5;exitY=0;exitDx=0;exitDy=0;endArrow=block;endFill=0;dashed=1;strokeWidth=2;entryX=0.5;entryY=1;entryDx=0;entryDy=0;fontSize=24;" parent="1" source="cIkYoaAPw058XxT0Uyvx-57" target="cIkYoaAPw058XxT0Uyvx-54" edge="1">
                    <mxGeometry x="-0.7059" relative="1" as="geometry">
                        <mxPoint x="1054.5" y="570" as="sourcePoint"/>
                        <mxPoint x="1054.5" y="260" as="targetPoint"/>
                        <mxPoint as="offset"/>
                    </mxGeometry>
                </mxCell>
                <mxCell id="cIkYoaAPw058XxT0Uyvx-73" style="edgeStyle=orthogonalEdgeStyle;rounded=0;orthogonalLoop=1;jettySize=auto;html=1;exitX=1;exitY=0.5;exitDx=0;exitDy=0;entryX=0;entryY=0.75;entryDx=0;entryDy=0;startArrow=none;startFill=0;endArrow=block;endFill=0;strokeWidth=2;fontSize=24;fontColor=#7EA6E0;jumpStyle=arc;dashed=1;" parent="1" source="5greAeXIB-viJ6H0r06e-24" target="cIkYoaAPw058XxT0Uyvx-15" edge="1">
                    <mxGeometry relative="1" as="geometry">
                        <mxPoint x="300" y="500" as="sourcePoint"/>
                        <Array as="points">
                            <mxPoint x="370" y="460"/>
                            <mxPoint x="370" y="350"/>
                        </Array>
                        <mxPoint x="315" y="390" as="targetPoint"/>
                    </mxGeometry>
                </mxCell>
                <mxCell id="cIkYoaAPw058XxT0Uyvx-75" value="&lt;font style=&quot;font-size: 24px;&quot; color=&quot;#000000&quot;&gt;Control&lt;/font&gt;" style="edgeLabel;html=1;align=center;verticalAlign=middle;resizable=0;points=[];fontSize=24;fontColor=#7EA6E0;" parent="cIkYoaAPw058XxT0Uyvx-73" vertex="1" connectable="0">
                    <mxGeometry x="-0.369" y="-1" relative="1" as="geometry">
                        <mxPoint x="-56.67" y="-1" as="offset"/>
                    </mxGeometry>
                </mxCell>
                <mxCell id="cIkYoaAPw058XxT0Uyvx-74" value="&lt;span style=&quot;color: rgb(0, 0, 0); font-size: 24px;&quot;&gt;Pulse Schedule&lt;/span&gt;" style="shape=umlActor;verticalLabelPosition=bottom;verticalAlign=top;html=1;outlineConnect=0;rounded=1;shadow=0;sketch=0;strokeWidth=7;fillColor=none;fontSize=24;fontColor=#7EA6E0;strokeColor=#FFB570;" parent="1" vertex="1">
                    <mxGeometry x="-130" y="420" width="70" height="120" as="geometry"/>
                </mxCell>
                <mxCell id="5greAeXIB-viJ6H0r06e-27" style="edgeStyle=orthogonalEdgeStyle;rounded=0;orthogonalLoop=1;jettySize=auto;html=1;exitX=1;exitY=0.5;exitDx=0;exitDy=0;entryX=0;entryY=0.25;entryDx=0;entryDy=0;strokeWidth=4;fillColor=#fa6800;strokeColor=#C73500;fontSize=24;" parent="1" source="5greAeXIB-viJ6H0r06e-1" target="cIkYoaAPw058XxT0Uyvx-15" edge="1">
                    <mxGeometry relative="1" as="geometry"/>
                </mxCell>
                <mxCell id="5greAeXIB-viJ6H0r06e-28" value="&lt;font style=&quot;font-size: 24px;&quot;&gt;Profiles&lt;/font&gt;" style="edgeLabel;html=1;align=center;verticalAlign=middle;resizable=0;points=[];fontSize=24;" parent="5greAeXIB-viJ6H0r06e-27" vertex="1" connectable="0">
                    <mxGeometry x="-0.2441" relative="1" as="geometry">
                        <mxPoint x="6" y="-15" as="offset"/>
                    </mxGeometry>
                </mxCell>
                <mxCell id="5greAeXIB-viJ6H0r06e-1" value="" style="shape=orEllipse;perimeter=ellipsePerimeter;whiteSpace=wrap;html=1;backgroundOutline=1;strokeColor=#B20000;fontColor=#ffffff;fillColor=none;fontSize=24;" parent="1" vertex="1">
                    <mxGeometry x="430" y="275" width="30" height="30" as="geometry"/>
                </mxCell>
                <mxCell id="5greAeXIB-viJ6H0r06e-4" value="" style="shape=orEllipse;perimeter=ellipsePerimeter;whiteSpace=wrap;html=1;backgroundOutline=1;strokeColor=#B20000;fontColor=#ffffff;fillColor=none;fontSize=24;" parent="1" vertex="1">
                    <mxGeometry x="1333.75" y="305" width="30" height="30" as="geometry"/>
                </mxCell>
                <mxCell id="5greAeXIB-viJ6H0r06e-19" value="" style="edgeStyle=orthogonalEdgeStyle;rounded=0;orthogonalLoop=1;jettySize=auto;html=1;strokeWidth=2;entryX=0;entryY=0.5;entryDx=0;entryDy=0;entryPerimeter=0;fontSize=24;" parent="1" source="5greAeXIB-viJ6H0r06e-15" target="L_pBXImfrmdXrkmZ3-33-8" edge="1">
                    <mxGeometry relative="1" as="geometry">
                        <mxPoint x="1610" y="320" as="targetPoint"/>
                    </mxGeometry>
                </mxCell>
                <mxCell id="L_pBXImfrmdXrkmZ3-33-7" style="edgeStyle=orthogonalEdgeStyle;rounded=0;orthogonalLoop=1;jettySize=auto;html=1;exitX=0.5;exitY=0;exitDx=0;exitDy=0;entryX=0;entryY=0.5;entryDx=0;entryDy=0;fillColor=#e51400;strokeColor=#B20000;strokeWidth=4;dashed=1;fontSize=24;" parent="1" source="5greAeXIB-viJ6H0r06e-15" target="L_pBXImfrmdXrkmZ3-33-3" edge="1">
                    <mxGeometry relative="1" as="geometry"/>
                </mxCell>
                <mxCell id="5greAeXIB-viJ6H0r06e-15" value="" style="ellipse;fillColor=#e51400;fontColor=#ffffff;strokeColor=none;fontSize=24;" parent="1" vertex="1">
                    <mxGeometry x="1510" y="310" width="20" height="20" as="geometry"/>
                </mxCell>
                <mxCell id="5greAeXIB-viJ6H0r06e-23" style="edgeStyle=orthogonalEdgeStyle;rounded=0;orthogonalLoop=1;jettySize=auto;html=1;exitX=1;exitY=0.3333333333333333;exitDx=0;exitDy=0;strokeWidth=2;entryX=0;entryY=0.5;entryDx=0;entryDy=0;exitPerimeter=0;dashed=1;fontSize=24;" parent="1" source="cIkYoaAPw058XxT0Uyvx-74" target="5greAeXIB-viJ6H0r06e-24" edge="1">
                    <mxGeometry relative="1" as="geometry">
                        <mxPoint x="220" y="560" as="targetPoint"/>
                        <mxPoint x="60" y="440" as="sourcePoint"/>
                    </mxGeometry>
                </mxCell>
                <mxCell id="5greAeXIB-viJ6H0r06e-30" style="edgeStyle=orthogonalEdgeStyle;rounded=0;orthogonalLoop=1;jettySize=auto;html=1;exitX=1;exitY=0.25;exitDx=0;exitDy=0;entryX=0;entryY=0.5;entryDx=0;entryDy=0;strokeWidth=2;dashed=1;fontSize=24;" parent="1" source="5greAeXIB-viJ6H0r06e-24" target="5greAeXIB-viJ6H0r06e-29" edge="1">
                    <mxGeometry relative="1" as="geometry">
                        <Array as="points">
                            <mxPoint x="170" y="443"/>
                            <mxPoint x="170" y="320"/>
                        </Array>
                    </mxGeometry>
                </mxCell>
                <mxCell id="5greAeXIB-viJ6H0r06e-34" style="edgeStyle=orthogonalEdgeStyle;rounded=0;orthogonalLoop=1;jettySize=auto;html=1;exitX=1;exitY=0.75;exitDx=0;exitDy=0;entryX=0;entryY=0.5;entryDx=0;entryDy=0;strokeWidth=2;dashed=1;fontSize=24;" parent="1" source="5greAeXIB-viJ6H0r06e-24" target="5greAeXIB-viJ6H0r06e-32" edge="1">
                    <mxGeometry relative="1" as="geometry">
                        <Array as="points">
                            <mxPoint x="170" y="477"/>
                            <mxPoint x="170" y="640"/>
                        </Array>
                    </mxGeometry>
                </mxCell>
                <mxCell id="5greAeXIB-viJ6H0r06e-24" value="&lt;font style=&quot;font-size: 24px;&quot;&gt;Control&lt;/font&gt;" style="shape=hexagon;perimeter=hexagonPerimeter2;whiteSpace=wrap;html=1;fixedSize=1;dashed=1;fontSize=24;" parent="1" vertex="1">
                    <mxGeometry x="40" y="420" width="120" height="80" as="geometry"/>
                </mxCell>
                <mxCell id="5greAeXIB-viJ6H0r06e-31" style="edgeStyle=orthogonalEdgeStyle;rounded=0;orthogonalLoop=1;jettySize=auto;html=1;exitX=1;exitY=0.5;exitDx=0;exitDy=0;entryX=0;entryY=0.5;entryDx=0;entryDy=0;strokeWidth=2;jumpStyle=arc;fontSize=24;" parent="1" source="5greAeXIB-viJ6H0r06e-29" target="cIkYoaAPw058XxT0Uyvx-15" edge="1">
                    <mxGeometry relative="1" as="geometry"/>
                </mxCell>
                <mxCell id="5greAeXIB-viJ6H0r06e-29" value="&lt;font style=&quot;font-size: 24px;&quot;&gt;Magnetics&lt;/font&gt;" style="shape=hexagon;perimeter=hexagonPerimeter2;whiteSpace=wrap;html=1;fixedSize=1;fontSize=24;" parent="1" vertex="1">
                    <mxGeometry x="220" y="300" width="90" height="40" as="geometry"/>
                </mxCell>
                <mxCell id="L_pBXImfrmdXrkmZ3-33-20" style="edgeStyle=orthogonalEdgeStyle;rounded=0;orthogonalLoop=1;jettySize=auto;html=1;exitX=1;exitY=0.5;exitDx=0;exitDy=0;entryX=0;entryY=0.75;entryDx=0;entryDy=0;endArrow=block;endFill=1;strokeColor=#000000;strokeWidth=2;jumpStyle=arc;dashed=1;fontSize=24;" parent="1" source="5greAeXIB-viJ6H0r06e-32" target="cIkYoaAPw058XxT0Uyvx-48" edge="1">
                    <mxGeometry relative="1" as="geometry">
                        <Array as="points">
                            <mxPoint x="800" y="640"/>
                            <mxPoint x="800" y="240"/>
                        </Array>
                    </mxGeometry>
                </mxCell>
                <mxCell id="5greAeXIB-viJ6H0r06e-32" value="&lt;font style=&quot;font-size: 24px;&quot;&gt;RFï¼ŒNBIã€‚ã€‚ã€‚&lt;/font&gt;" style="shape=hexagon;perimeter=hexagonPerimeter2;whiteSpace=wrap;html=1;fixedSize=1;fontSize=24;" parent="1" vertex="1">
                    <mxGeometry x="390" y="620" width="170" height="40" as="geometry"/>
                </mxCell>
                <mxCell id="L_pBXImfrmdXrkmZ3-33-3" value="&lt;font color=&quot;#cc0000&quot; style=&quot;font-size: 24px;&quot;&gt;&lt;b style=&quot;font-size: 24px;&quot;&gt;t=t+1&lt;/b&gt;&lt;/font&gt;" style="triangle;whiteSpace=wrap;html=1;direction=north;strokeColor=#B20000;fontColor=#ffffff;fillColor=none;fontSize=24;" parent="1" vertex="1">
                    <mxGeometry x="1480" y="150" width="80" height="60" as="geometry"/>
                </mxCell>
                <mxCell id="L_pBXImfrmdXrkmZ3-33-5" style="edgeStyle=orthogonalEdgeStyle;rounded=0;orthogonalLoop=1;jettySize=auto;html=1;exitX=1;exitY=0.5;exitDx=0;exitDy=0;strokeWidth=4;entryX=0.5;entryY=0;entryDx=0;entryDy=0;jumpStyle=arc;fillColor=#fa6800;strokeColor=#C73500;dashed=1;fontSize=24;" parent="1" source="L_pBXImfrmdXrkmZ3-33-3" target="5greAeXIB-viJ6H0r06e-24" edge="1">
                    <mxGeometry relative="1" as="geometry">
                        <mxPoint x="100" y="340" as="targetPoint"/>
                        <Array as="points">
                            <mxPoint x="1520" y="80"/>
                            <mxPoint x="100" y="80"/>
                        </Array>
                        <mxPoint x="1520" y="310" as="sourcePoint"/>
                    </mxGeometry>
                </mxCell>
                <mxCell id="L_pBXImfrmdXrkmZ3-33-8" value="&lt;span style=&quot;font-size: 24px;&quot;&gt;Simulation&lt;br style=&quot;font-size: 24px;&quot;&gt;Database&lt;/span&gt;" style="ellipse;shape=cloud;whiteSpace=wrap;html=1;fontFamily=Helvetica;fontSize=24;fontColor=#000000;align=center;strokeColor=#000000;" parent="1" vertex="1">
                    <mxGeometry x="1620" y="260" width="160" height="120" as="geometry"/>
                </mxCell>
                <mxCell id="L_pBXImfrmdXrkmZ3-33-9" value="EAST&lt;br style=&quot;font-size: 24px;&quot;&gt;Database" style="ellipse;shape=cloud;whiteSpace=wrap;html=1;fillColor=none;fontSize=24;" parent="1" vertex="1">
                    <mxGeometry x="-120" y="-10" width="120" height="80" as="geometry"/>
                </mxCell>
                <mxCell id="L_pBXImfrmdXrkmZ3-33-16" style="edgeStyle=orthogonalEdgeStyle;rounded=0;orthogonalLoop=1;jettySize=auto;html=1;exitX=1;exitY=0.5;exitDx=0;exitDy=0;entryX=0.5;entryY=0;entryDx=0;entryDy=0;strokeWidth=4;fillColor=#e51400;strokeColor=#B20000;dashed=1;fontSize=24;" parent="1" source="L_pBXImfrmdXrkmZ3-33-15" target="5greAeXIB-viJ6H0r06e-1" edge="1">
                    <mxGeometry relative="1" as="geometry"/>
                </mxCell>
                <mxCell id="L_pBXImfrmdXrkmZ3-33-15" value="&lt;font style=&quot;font-size: 24px;&quot;&gt;Diag.&lt;/font&gt;" style="shape=hexagon;perimeter=hexagonPerimeter2;whiteSpace=wrap;html=1;fixedSize=1;fontSize=24;" parent="1" vertex="1">
                    <mxGeometry x="195" y="160" width="140" height="40" as="geometry"/>
                </mxCell>
                <mxCell id="L_pBXImfrmdXrkmZ3-33-19" value="&lt;font color=&quot;#ff8000&quot;&gt;&amp;nbsp; Fy&lt;/font&gt;&lt;font color=&quot;#002fa7&quot;&gt;Tok&lt;/font&gt;" style="text;rounded=1;shadow=0;strokeColor=#FF9933;html=1;fontSize=40;verticalAlign=middle;fontStyle=3;strokeWidth=5;" parent="1" vertex="1">
                    <mxGeometry x="1530" y="790" width="160" height="60" as="geometry"/>
                </mxCell>
            </root>
        </mxGraphModel>
    </diagram>
</mxfile>